<svg width="144" height="27" viewBox="0 0 144 27" fill="none"
    xmlns="http://www.w3.org/2000/svg">
    <path d="M12.244 2.128H15.8V21H12.244V13.076H4.488V21H0.96V2.128H4.488V10.024H12.244V2.128ZM25.6538 21.224C23.5071 21.224 21.8271 20.552 20.6138 19.208C19.4191 17.864 18.8218 16.1467 18.8218 14.056C18.8218 11.8907 19.4471 10.108 20.6978 8.708C21.9485 7.28933 23.6005 6.58 25.6538 6.58C27.8378 6.58 29.5271 7.27067 30.7218 8.652C31.9165 10.0147 32.5138 11.7507 32.5138 13.86C32.5138 16.0067 31.9071 17.7707 30.6938 19.152C29.4991 20.5333 27.8191 21.224 25.6538 21.224ZM25.6538 9.324C24.5898 9.324 23.7685 9.76267 23.1898 10.64C22.6298 11.5173 22.3498 12.6187 22.3498 13.944C22.3498 15.2507 22.6391 16.3427 23.2178 17.22C23.7965 18.0973 24.6178 18.536 25.6818 18.536C26.7831 18.536 27.6138 18.1067 28.1738 17.248C28.7338 16.3893 29.0138 15.2973 29.0138 13.972C29.0138 12.6093 28.7431 11.4987 28.2018 10.64C27.6605 9.76267 26.8111 9.324 25.6538 9.324ZM47.8138 21H43.8658L38.7698 13.664V21H35.4098V1.54H38.7698V13.468L43.7818 6.804H47.7018L42.4938 13.58L47.8138 21ZM58.8308 6.804H62.2188V21H58.8308V18.676C58.0841 20.3187 56.6281 21.14 54.4628 21.14C53.0254 21.14 51.9054 20.7293 51.1028 19.908C50.3001 19.0867 49.8988 17.92 49.8988 16.408V6.804H53.2588V15.624C53.2588 16.52 53.4734 17.2013 53.9028 17.668C54.3508 18.1347 54.9574 18.368 55.7228 18.368C56.6934 18.368 57.4494 18.0413 57.9908 17.388C58.5508 16.7347 58.8308 15.7453 58.8308 14.42V6.804ZM69.5388 18.116H72.5628C74.8214 18.116 75.9508 17.2573 75.9508 15.54C75.9508 13.7853 74.7748 12.908 72.4228 12.908H69.5388V18.116ZM69.5388 5.012V10.08H71.6668C72.9361 10.08 73.8881 9.828 74.5228 9.324C75.1574 8.82 75.4748 8.176 75.4748 7.392C75.4748 6.664 75.2041 6.08533 74.6628 5.656C74.1401 5.22667 73.3374 5.012 72.2548 5.012H69.5388ZM66.0108 2.128H72.7028C74.7188 2.128 76.2868 2.604 77.4068 3.556C78.5268 4.508 79.0868 5.74 79.0868 7.252C79.0868 8.27867 78.8068 9.17467 78.2468 9.94C77.6868 10.6867 76.9681 11.1813 76.0908 11.424C77.0988 11.6667 77.9294 12.1613 78.5828 12.908C79.2361 13.636 79.5628 14.6347 79.5628 15.904C79.5628 17.3973 79.0401 18.62 77.9948 19.572C76.9494 20.524 75.5028 21 73.6548 21H66.0108V2.128ZM85.8011 6.804V9.324C86.4544 7.56933 87.6491 6.692 89.3851 6.692C89.7771 6.692 90.0944 6.72 90.3371 6.776V10.024C89.9078 9.83733 89.4318 9.744 88.9091 9.744C87.9944 9.744 87.2478 10.1173 86.6691 10.864C86.0904 11.6107 85.8011 12.544 85.8011 13.664V21H82.4131L82.4411 6.804H85.8011ZM92.4522 21V6.804H95.8122V21H92.4522ZM92.1162 2.548C92.1162 1.988 92.3122 1.512 92.7042 1.12C93.0962 0.728 93.5722 0.532 94.1322 0.532C94.6922 0.532 95.1682 0.728 95.5602 1.12C95.9522 1.512 96.1482 1.988 96.1482 2.548C96.1482 3.12667 95.9522 3.612 95.5602 4.004C95.1682 4.396 94.6922 4.592 94.1322 4.592C93.5722 4.592 93.0962 4.396 92.7042 4.004C92.3122 3.612 92.1162 3.12667 92.1162 2.548ZM105.69 18.312C106.698 18.312 107.538 17.9293 108.21 17.164C108.882 16.38 109.218 15.2507 109.218 13.776C109.218 12.3387 108.863 11.2653 108.154 10.556C107.444 9.828 106.632 9.464 105.718 9.464C104.747 9.464 103.926 9.86533 103.254 10.668C102.6 11.452 102.274 12.5533 102.274 13.972C102.274 15.26 102.6 16.3053 103.254 17.108C103.907 17.9107 104.719 18.312 105.69 18.312ZM109.218 1.204H112.578V21H109.218V18.788C108.247 20.3933 106.81 21.196 104.906 21.196C103.039 21.196 101.555 20.4867 100.454 19.068C99.371 17.6493 98.8296 15.932 98.8296 13.916C98.8296 11.676 99.399 9.90267 100.538 8.596C101.695 7.27067 103.17 6.608 104.962 6.608C106.81 6.608 108.228 7.40133 109.218 8.988V1.204ZM122.147 17.808C123.061 17.808 123.827 17.4533 124.443 16.744C125.059 16.016 125.367 15.0733 125.367 13.916C125.367 12.404 125.068 11.2933 124.471 10.584C123.873 9.87467 123.117 9.52 122.203 9.52C121.232 9.52 120.467 9.90267 119.907 10.668C119.347 11.4147 119.067 12.432 119.067 13.72C119.067 15.0453 119.356 16.0627 119.935 16.772C120.513 17.4627 121.251 17.808 122.147 17.808ZM125.367 6.804H128.727V19.712C128.727 21.952 128.073 23.632 126.767 24.752C125.479 25.8907 123.836 26.46 121.839 26.46C119.972 26.46 118.339 26.124 116.939 25.452V22.036C118.208 22.932 119.729 23.38 121.503 23.38C124.079 23.38 125.367 22.148 125.367 19.684V18.452C124.508 19.852 123.164 20.552 121.335 20.552C119.748 20.552 118.385 19.9733 117.247 18.816C116.127 17.64 115.567 15.9413 115.567 13.72C115.567 11.6667 116.099 9.97733 117.163 8.652C118.245 7.308 119.664 6.636 121.419 6.636C123.192 6.636 124.508 7.37333 125.367 8.848V6.804ZM140.747 12.74V12.32C140.709 11.4053 140.457 10.6773 139.991 10.136C139.543 9.576 138.88 9.296 138.003 9.296C137.2 9.296 136.5 9.59467 135.903 10.192C135.324 10.7707 134.951 11.62 134.783 12.74H140.747ZM143.043 17.304V20.216C142.053 20.832 140.625 21.14 138.759 21.14C136.5 21.14 134.717 20.468 133.411 19.124C132.104 17.78 131.451 16.044 131.451 13.916C131.451 11.6573 132.067 9.884 133.299 8.596C134.531 7.308 136.071 6.664 137.919 6.664C139.767 6.664 141.232 7.224 142.315 8.344C143.397 9.464 143.939 11.0973 143.939 13.244C143.939 13.7667 143.873 14.4387 143.743 15.26H134.839C135.081 16.2867 135.585 17.0707 136.351 17.612C137.135 18.1533 138.105 18.424 139.263 18.424C140.756 18.424 142.016 18.0507 143.043 17.304Z" fill="#3F3F48"/>
</svg>
