<svg id="Layer_1" data-name="Layer 1" xmlns="http://www.w3.org/2000/svg" width="200.00002mm" height="200.00002mm" viewBox="0 0 566.9292 566.9292">
  <g>
    <path d="M585.57581,585.37235H-7.74854V-7.952H585.57581ZM262.999,452.14043c.08761-.94025.14951-1.2945.14956-1.64875q.008-60.71249-.0705-121.42481a5.11381,5.11381,0,0,0-1.81354-3.31163c-7.73859-6.5836-15.57522-13.052-23.3877-19.54872-.64667-.53773-1.33209-1.02892-2.504-1.92929v87.93786c-.6989-.46942-1.08588-.684-1.42119-.961Q210.246,371.6608,186.59928,351.9969a5.05942,5.05942,0,0,1-1.40173-3.50017q-.10709-59.75063-.10147-119.50148a4.82531,4.82531,0,0,1,1.99627-4.1605q21.13634-17.31378,42.19238-34.72561c1.94023-1.59842,3.8932-3.1814,6.30844-5.15387v3.52328q0,35.85049-.03539,71.7009a5.26472,5.26472,0,0,0,2.06573,4.63752q37.08565,30.55987,74.0779,61.23313a7.171,7.171,0,0,1,2.98524,6.18666q-.15171,58.10211-.06851,116.20489v3.6756c1.10837-.85036,1.75129-1.31173,2.3597-1.81493q50.99767-42.17678,101.94783-84.41082a5.02218,5.02218,0,0,0,1.66028-3.38765q.12309-73.76112.00161-147.52248a5.00776,5.00776,0,0,0-1.627-3.394q-50.608-42.00184-101.32742-83.86944c-.85677-.70833-1.74663-1.37661-2.76577-2.17725a7.26184,7.26184,0,0,0-.222.995q-.0181,61.12416.04289,122.2482a4.41586,4.41586,0,0,0,1.60591,2.84074c7.55743,6.37244,15.19184,12.65354,22.806,18.95864,1.01491.84042,2.04018,1.66832,3.596,2.93933v-88.0658c.96538.74449,1.53456,1.15726,2.0754,1.60436q22.85787,18.89577,45.7416,37.75994A5.30221,5.30221,0,0,1,392.681,229.442q-.09044,59.20127.0003,118.40264a5.613,5.613,0,0,1-2.24675,4.87084q-23.0382,18.893-45.971,37.91468c-.50854.41965-1.09435.74567-2.00672,1.3592v-3.69771c0-23.534-.03279-47.06824.05269-70.60194a5.8716,5.8716,0,0,0-2.42026-5.07424q-37.29317-30.74054-74.52682-61.55318a5.59655,5.59655,0,0,1-2.26371-4.85931q.08431-58.51449.04112-117.02914v-3.98547c-1.26305.95107-2.059,1.50223-2.8023,2.11705q-50.57211,41.82945-101.163,83.63618a5.6045,5.6045,0,0,0-2.3048,4.83573q.09366,72.38767-.02113,144.77537a7.67506,7.67506,0,0,0,3.13481,6.68009q40.83139,33.57028,81.51246,67.32353C248.661,440.31544,255.63569,446.0631,262.999,452.14043Z"/>
    <path d="M262.999,452.14043c-7.36332-6.07733-14.338-11.825-21.30315-17.58415q-40.73792-33.68409-81.51246-67.32353a7.67506,7.67506,0,0,1-3.13481-6.68009q.146-72.38746.02113-144.77537a5.6045,5.6045,0,0,1,2.3048-4.83573q50.62065-41.77065,101.163-83.63618c.74332-.61482,1.53925-1.166,2.8023-2.11705v3.98547q0,58.51461-.04112,117.02914a5.59655,5.59655,0,0,0,2.26371,4.85931q37.30525,30.72573,74.52682,61.55318a5.8716,5.8716,0,0,1,2.42026,5.07424c-.08548,23.5337-.05269,47.06791-.05269,70.60194v3.69771c.91237-.61353,1.49818-.93955,2.00672-1.3592q22.97895-18.96538,45.971-37.91468a5.613,5.613,0,0,0,2.24675-4.87084q-.092-59.20123-.0003-118.40264a5.30221,5.30221,0,0,0-2.16781-4.62084q-22.93207-18.80523-45.7416-37.75994c-.54084-.4471-1.11-.85987-2.0754-1.60436v88.0658c-1.55578-1.271-2.58105-2.09891-3.596-2.93933-7.6142-6.3051-15.24861-12.5862-22.806-18.95864a4.41586,4.41586,0,0,1-1.60591-2.84074q-.10941-61.124-.04289-122.2482a7.26184,7.26184,0,0,1,.222-.995c1.01914.80064,1.909,1.46892,2.76577,2.17725q50.68791,41.9055,101.32742,83.86944a5.00776,5.00776,0,0,1,1.627,3.394q.12042,73.76117-.00161,147.52248a5.02218,5.02218,0,0,1-1.66028,3.38765q-50.91915,42.27137-101.94783,84.41082c-.60841.5032-1.25133.96457-2.3597,1.81493v-3.6756q0-58.10251.06851-116.20489a7.171,7.171,0,0,0-2.98524-6.18666Q274.62248,295.482,237.62351,264.817a5.26472,5.26472,0,0,1-2.06573-4.63752q.08176-35.85028.03539-71.7009v-3.52328c-2.41524,1.97247-4.36821,3.55545-6.30844,5.15387q-21.088,17.37281-42.19238,34.72561a4.82531,4.82531,0,0,0-1.99627,4.1605q.08342,59.7507.10147,119.50148a5.05942,5.05942,0,0,0,1.40173,3.50017q23.59614,19.72442,47.35238,39.25715c.33531.27708.72229.49162,1.42119.961V304.27723c1.17189.90037,1.85731,1.39156,2.504,1.92929,7.81248,6.49668,15.64911,12.96512,23.3877,19.54872a5.11381,5.11381,0,0,1,1.81354,3.31163q.13719,60.71217.0705,121.42481C263.14852,450.84593,263.08662,451.20018,262.999,452.14043Z" fill="#fff"/>
  </g>
</svg>
